<svg width="44" height="44" viewBox="0 0 44 44" fill="none" xmlns="http://www.w3.org/2000/svg">
<g clipPath="url(#clip0_23_13)">
<mask id="mask0_23_13" style="mask-type:luminance" maskUnits="userSpaceOnUse" x="0" y="0" width="44" height="44">
<path d="M43.5 0.969421H0.5V43.9694H43.5V0.969421Z" fill="white"/>
</mask>
<g mask="url(#mask0_23_13)">
<path d="M35.3626 10.9989C33.2891 16.0377 29.2898 17.4095 24.2828 17.8579C21.1698 27.0014 24.6099 37.0998 31.1417 43.7111C43.7412 37.7542 46.0521 19.9684 35.3626 10.9989Z" fill="white"/>
<path d="M26.6204 13.8005C28.9657 12.8159 30.9244 11.0907 32.1972 8.88844C30.8207 8.14088 29.3617 7.55655 27.8497 7.14731L30.7832 3.55955C31.0348 3.23348 31.1494 2.82221 31.1026 2.41304C31.0559 2.00387 30.8515 1.62903 30.5329 1.36809C30.2143 1.10715 29.8065 0.980673 29.3962 1.0155C28.9858 1.05033 28.6052 1.24372 28.3351 1.55462L24.3516 6.42447C22.9051 6.23453 21.44 6.23453 19.9935 6.42447L16.0101 1.55462C15.8807 1.38698 15.7191 1.247 15.5347 1.14295C15.3503 1.0389 15.1469 0.972914 14.9365 0.948886C14.7261 0.924857 14.5131 0.943278 14.3099 1.00306C14.1068 1.06284 13.9178 1.16277 13.754 1.29692C13.5902 1.43107 13.4549 1.59673 13.3563 1.78408C13.2577 1.97143 13.1976 2.17667 13.1797 2.38764C13.1618 2.59862 13.1864 2.81104 13.252 3.01234C13.3177 3.21363 13.4231 3.3997 13.5619 3.55955L16.4955 7.14731C14.9835 7.55655 13.5244 8.14088 12.1479 8.88844C13.5663 11.3108 15.8102 13.1407 18.4683 14.0429C21.1263 14.9451 24.0206 14.8591 26.6204 13.8005Z" fill="white"/>
<path d="M13.2031 16.2751C11.325 14.9514 9.86133 13.1218 8.98222 10.9989C8.45463 11.458 0.841169 18.0637 2.12327 28.4102C3.4212 38.8833 12.6016 43.4259 13.2031 43.7111C19.735 37.0998 23.175 27.0014 20.0621 17.8579C18.9699 17.7629 15.5721 17.9318 13.2031 16.2751Z" fill="white"/>
</g>
</g>
<defs>
<clipPath id="clip0_23_13">
<rect width="43" height="43" fill="white" transform="translate(0.5 0.969421)"/>
</clipPath>
</defs>
</svg>
