<svg width="44" height="44" viewBox="0 0 44 44" fill="none" xmlns="http://www.w3.org/2000/svg">
<g clipPath="url(#clip0_23_21)">
<mask id="mask0_23_21" style="mask-type:luminance" maskUnits="userSpaceOnUse" x="0" y="0" width="44" height="44">
<path d="M43.5 0.969421H0.5V43.9694H43.5V0.969421Z" fill="white"/>
</mask>
<g mask="url(#mask0_23_21)">
<path d="M39.2806 22.4694C39.2816 25.1669 38.638 27.8255 37.4031 30.2237C36.1685 32.6219 34.3783 34.6902 32.1821 36.2566C29.9859 37.8228 27.4472 38.8413 24.7775 39.2273C22.1079 39.6133 19.3846 39.356 16.8346 38.4762C20.1662 37.3276 23.0564 35.1682 25.1022 32.2989C27.148 29.4296 28.2476 25.9934 28.2476 22.4694C28.2476 18.9454 27.148 15.5093 25.1022 12.64C23.0564 9.77065 20.1662 7.61121 16.8346 6.46267C19.3846 5.58295 22.1079 5.32539 24.7775 5.71152C27.4472 6.09761 29.9859 7.1162 32.1821 8.68238C34.3783 10.2485 36.1685 12.3169 37.4031 14.7151C38.638 17.1134 39.2816 19.772 39.2806 22.4694ZM22 0.969421C17.7477 0.969421 13.5909 2.23037 10.0552 4.59281C6.5196 6.95529 3.76388 10.3131 2.1366 14.2417C0.509315 18.1703 0.0835446 22.4933 0.913125 26.6639C1.74271 30.8345 3.79038 34.6653 6.79721 37.6723C9.80406 40.6789 13.635 42.7268 17.8056 43.5562C21.9761 44.386 26.2991 43.96 30.2277 42.3327C34.1562 40.7055 37.5143 37.9498 39.8766 34.4142C42.2389 30.8785 43.5 26.7217 43.5 22.4694C43.5 16.7673 41.2348 11.2987 37.2029 7.26664C33.1708 3.23459 27.7022 0.969421 22 0.969421Z" fill="white"/>
</g>
</g>
<defs>
<clipPath id="clip0_23_21">
<rect width="43" height="43" fill="white" transform="translate(0.5 0.969421)"/>
</clipPath>
</defs>
</svg>
