<svg width="38" height="45" viewBox="0 0 38 45" fill="none" xmlns="http://www.w3.org/2000/svg">
<path d="M36.9981 22.114C36.1858 18.0726 34.0395 14.4213 30.9032 11.7461C27.767 9.07089 23.8229 7.52692 19.704 7.36194C20.4553 5.29032 20.4168 3.01445 19.5958 0.969421C18.6333 3.13902 17.2065 5.07105 15.4161 6.62926C14.6531 7.34941 13.7841 7.94809 12.8394 8.40442C11.9028 8.76525 10.9868 9.17728 10.0955 9.63869C6.62507 11.571 3.86702 14.5669 2.22778 18.185C1.28336 20.278 0.741214 22.53 0.629639 24.8234C2.66043 24.188 4.72998 23.6838 6.82549 23.3138C8.68423 22.9893 10.5676 22.8221 12.4361 22.5713C15.8783 22.0795 18.5877 20.0831 20.4858 17.1622C22.8853 17.934 24.8938 19.6028 26.0923 21.8201C27.2907 24.0374 27.5864 26.6319 26.9177 29.0621C26.2489 31.4922 24.6674 33.5701 22.5032 34.8622C20.339 36.1542 17.7594 36.56 15.303 35.9956C16.2499 38.1218 17.745 39.958 19.6352 41.3162C20.5973 42.0059 21.6496 42.5602 22.7626 42.9636C23.2559 43.2068 23.8009 43.3268 24.3509 43.3127C24.9867 43.1585 25.6035 42.9341 26.19 42.6438C30.0813 40.988 33.2823 38.0405 35.2533 34.2986C37.2239 30.5568 37.8437 26.2498 37.0082 22.1041L36.9981 22.114ZM7.4549 15.9722C7.98797 15.4412 8.63582 15.0396 9.34851 14.7984C10.0612 14.5571 10.8198 14.4826 11.5658 14.5806C11.6541 15.3236 11.5729 16.077 11.3282 16.7841C11.0835 17.4912 10.6818 18.1336 10.1532 18.6632C9.62459 19.1928 8.98285 19.5956 8.27617 19.8416C7.56949 20.0875 6.81628 20.1701 6.07312 20.0831C5.97385 19.3378 6.04679 18.5798 6.28634 17.8671C6.52587 17.1545 6.92563 16.5062 7.4549 15.9722ZM17.0929 44.0306C13.2563 43.6332 9.64175 42.0395 6.76055 39.4753C3.87935 36.9107 1.87736 33.5054 1.03779 29.7408C5.0381 27.5624 9.53949 26.4705 14.0933 26.574C12.5401 28.9346 11.8073 31.7411 12.0084 34.5597C12.1313 36.4098 12.6486 38.2118 13.5256 39.8455C14.4026 41.4791 15.6189 42.9058 17.0929 44.0306Z" fill="white"/>
</svg>
