<svg width="44" height="44" viewBox="0 0 44 44" fill="none" xmlns="http://www.w3.org/2000/svg">
<g clipPath="url(#clip0_23_45)">
<mask id="mask0_23_45" style="mask-type:luminance" maskUnits="userSpaceOnUse" x="0" y="0" width="44" height="44">
<path d="M43.5 0.969421H0.5V43.9694H43.5V0.969421Z" fill="white"/>
</mask>
<g mask="url(#mask0_23_45)">
<path d="M1.25171 31.3161L3.94031 37.8708C4.1376 38.3549 4.49709 38.7553 4.95719 39.0036C5.41725 39.2515 5.94931 39.3321 6.46215 39.231C6.97503 39.1299 7.43681 38.8537 7.76838 38.4496C8.09995 38.0455 8.28068 37.5386 8.27964 37.0158V17.9377C8.28068 17.415 8.09995 16.9082 7.76838 16.5041C7.43681 16.1 6.97503 15.8238 6.46215 15.7227C5.94931 15.6217 5.41725 15.7021 4.95719 15.9502C4.49709 16.1984 4.1376 16.5987 3.94031 17.0828L1.25171 23.6375C0.24064 26.0972 0.24064 28.8564 1.25171 31.3161Z" fill="white"/>
<path d="M43.5004 36.7525V8.52232C43.5004 7.77362 43.2028 7.05559 42.6733 6.52618C42.1439 5.99675 41.426 5.69934 40.6772 5.69934H39.3331C38.5843 5.69934 37.8661 5.99675 37.337 6.52618C36.8075 7.05559 36.5099 7.77362 36.5099 8.52232V17.7065C36.5099 17.9447 36.4155 18.1731 36.2468 18.3415C36.0785 18.5099 35.8501 18.6045 35.6119 18.6045C35.4943 18.6045 35.3778 18.5812 35.2693 18.5361C35.1604 18.4909 35.062 18.4246 34.979 18.3412C34.896 18.2577 34.8302 18.1587 34.7858 18.0498C34.7412 17.9408 34.7187 17.8242 34.7193 17.7065V8.52232C34.7193 7.77362 34.422 7.05559 33.8925 6.52618C33.3631 5.99675 32.6451 5.69934 31.8963 5.69934H30.5521C29.8034 5.69934 29.0853 5.99675 28.5559 6.52618C28.0265 7.05559 27.729 7.77362 27.729 8.52232V17.7065C27.729 17.9447 27.6344 18.1731 27.466 18.3415C27.2976 18.5099 27.0692 18.6045 26.8311 18.6045C26.5929 18.6045 26.3645 18.5099 26.1961 18.3415C26.0277 18.1731 25.9331 17.9447 25.9331 17.7065V8.52232C25.9331 7.77362 25.6357 7.05559 25.1062 6.52618C24.5768 5.99675 23.8588 5.69934 23.1101 5.69934H21.7658C21.0171 5.69934 20.299 5.99675 19.7696 6.52618C19.2402 7.05559 18.9428 7.77362 18.9428 8.52232V17.7065C18.9435 17.8242 18.9209 17.9408 18.8764 18.0498C18.8318 18.1587 18.7662 18.2577 18.6833 18.3412C18.6003 18.4246 18.5016 18.4909 18.393 18.5361C18.2844 18.5812 18.1678 18.6045 18.0502 18.6045C17.812 18.6045 17.5836 18.5099 17.4152 18.3415C17.2468 18.1731 17.1522 17.9447 17.1522 17.7065V8.52232C17.1522 7.77362 16.8547 7.05559 16.3253 6.52618C15.7959 5.99675 15.0779 5.69934 14.3292 5.69934H12.9849C12.2362 5.69934 11.5181 5.99675 10.9887 6.52618C10.4593 7.05559 10.1619 7.77362 10.1619 8.52232V36.7525C10.1619 37.5013 10.4593 38.2192 10.9887 38.7486C11.5181 39.278 12.2362 39.5753 12.9849 39.5753H40.6772C41.426 39.5753 42.1439 39.278 42.6733 38.7486C43.2028 38.2192 43.5004 37.5013 43.5004 36.7525Z" fill="white"/>
</g>
</g>
<defs>
<clipPath id="clip0_23_45">
<rect width="43" height="43" fill="white" transform="translate(0.5 0.969421)"/>
</clipPath>
</defs>
</svg>
