<svg width="44" height="44" viewBox="0 0 44 44" fill="none" xmlns="http://www.w3.org/2000/svg">
<g clipPath="url(#clip0_23_52)">
<mask id="mask0_23_52" style="mask-type:luminance" maskUnits="userSpaceOnUse" x="0" y="0" width="44" height="44">
<path d="M43.5 0.969421H0.5V43.9694H43.5V0.969421Z" fill="white"/>
</mask>
<g mask="url(#mask0_23_52)">
<path d="M32.2547 13.0544C37.0658 16.4729 39.8652 22.794 37.741 28.5289C35.7435 33.9356 30.1586 37.3165 24.5315 37.4761C25.5417 37.119 26.4492 36.5204 27.1748 35.7322C27.9004 34.9441 28.422 33.9901 28.6942 32.9539C28.9664 31.9178 28.9809 30.8307 28.7364 29.7876C28.4919 28.7445 27.9958 27.7771 27.2915 26.9699C26.5871 26.1626 25.6959 25.54 24.6956 25.1564C23.6952 24.7727 22.6162 24.6397 21.5527 24.769C20.4892 24.8982 19.4735 25.2858 18.5942 25.8979C17.7149 26.5099 16.9987 27.3279 16.5082 28.2804C14.1636 32.782 17.8681 37.2695 21.9102 39.0658C26.4916 41.1103 31.7858 39.6002 35.462 36.4397C29.1317 45.124 16.316 46.667 9.28212 38.0012C4.49911 32.1068 4.38657 23.4645 8.7335 17.2232C7.68779 20.6041 8.49901 24.0226 11.3126 25.8982C8.49901 20.2712 10.3747 16.0086 14.1917 12.2338C16.0299 10.4144 18.3699 9.7204 20.2878 8.13074C22.3979 6.38635 22.6746 3.48839 22.2713 0.942139C23.9376 1.81439 25.3132 3.15391 26.2295 4.79646C27.1457 6.43903 27.5627 8.31322 27.4295 10.1893C22.0978 10.2127 20.1424 17.6311 24.841 20.2712C29.4177 22.8596 34.7307 17.7108 32.2547 13.0544Z" fill="white"/>
</g>
</g>
<defs>
<clipPath id="clip0_23_52">
<rect width="43" height="43" fill="white" transform="translate(0.5 0.969421)"/>
</clipPath>
</defs>
</svg>
