<svg width="44" height="44" viewBox="0 0 44 44" fill="none" xmlns="http://www.w3.org/2000/svg">
<path d="M38.1053 29.0993C35.9197 33.3817 33.1889 35.2341 29.669 35.7153C28.8124 35.8236 27.935 35.7153 27.0732 35.8657C26.4554 35.9559 26.0349 36.7257 26.554 37.0685C29.0772 38.6745 26.7929 39.4324 26.1024 40.076C23.4824 42.4482 20.2846 43.8055 16.9619 43.9555C13.6392 44.1055 10.3599 43.0405 7.58859 40.9115C4.81725 38.783 2.69425 35.6978 1.5203 32.0936C0.346346 28.4893 0.180934 24.5486 1.04749 20.8294C1.88358 17.1111 3.71816 13.797 6.2863 11.3656C8.85443 8.93426 12.0232 7.51146 15.3349 7.30271C19.6439 7.08018 23.9738 7.10424 28.314 7.24259C33.8639 7.39896 38.9465 6.19606 43.0219 0.969421C43.7748 2.41893 43.458 3.69402 43.2765 4.87283C42.6225 9.09784 40.7213 12.9281 37.898 15.7075C35.0744 18.4869 31.5047 20.0424 27.8 20.1076C26.2425 20.1497 24.685 20.1076 23.1275 20.1557C22.6084 20.1557 22.0165 20.2941 22.0113 21.0579C22.0113 21.6594 22.5305 21.8278 22.9614 21.7977C28.6722 21.4669 34.6115 23.2652 39.803 18.9468C40.182 18.6281 40.6337 18.0026 41.1271 18.6461C41.5318 19.1694 41.2359 19.7828 40.9817 20.3061C38.6764 25.0756 35.2448 27.9505 30.4841 28.4498C29.1135 28.5941 27.7221 28.4498 26.3308 28.54C25.5313 28.5881 24.1814 28.107 24.1399 29.352C24.0932 30.7834 25.469 30.206 26.2166 30.194C29.9857 30.1459 33.7808 30.7473 38.1053 29.0993Z" fill="white"/>
</svg>
