<svg width="44" height="44" viewBox="0 0 44 44" fill="none" xmlns="http://www.w3.org/2000/svg">
<g clipPath="url(#clip0_23_60)">
<mask id="mask0_23_60" style="mask-type:luminance" maskUnits="userSpaceOnUse" x="0" y="0" width="44" height="44">
<path d="M43.5 0.969421H0.5V43.9694H43.5V0.969421Z" fill="white"/>
</mask>
<g mask="url(#mask0_23_60)">
<path d="M43.7368 22.5131C43.7368 3.77019 20.4843 -6.12267 6.9556 6.88181C-6.66328 20.0046 2.70534 43.6291 21.6117 44.2043C31.4764 44.2043 36.0085 43.3755 42.9869 41.5887C40.8786 40.7256 38.9295 39.5156 37.2206 38.0092C39.2856 35.9916 40.926 33.5812 42.0453 30.9199C43.1643 28.2586 43.7394 25.4001 43.7368 22.5131ZM13.2972 24.2042C12.0463 24.2018 10.838 23.7498 9.89263 22.9307C8.94727 22.1116 8.32787 20.9799 8.14744 19.7421C7.967 18.5044 8.23754 17.243 8.90971 16.188C9.58189 15.1331 10.6109 14.355 11.809 13.9956C11.7711 14.2495 11.7504 14.5056 11.747 14.7623C11.7451 15.5748 11.9336 16.3764 12.2972 17.103C12.6608 17.8296 13.1896 18.4609 13.8411 18.9464C14.4926 19.4319 15.2488 19.7581 16.049 19.8988C16.8493 20.0395 17.6713 19.9908 18.4494 19.7566C18.2657 20.9922 17.6446 22.1207 16.6991 22.937C15.7535 23.7532 14.5463 24.2029 13.2972 24.2042ZM30.7098 24.2042C29.4603 24.2041 28.2525 23.7548 27.3067 22.9383C26.3609 22.1219 25.7401 20.9927 25.5576 19.7566C26.3356 19.9908 27.1577 20.0395 27.9579 19.8988C28.7582 19.7581 29.5143 19.4319 30.1659 18.9464C30.8174 18.4609 31.3461 17.8296 31.7098 17.103C32.0734 16.3764 32.2618 15.5748 32.2599 14.7623C32.2565 14.5056 32.2358 14.2495 32.1979 13.9956C33.3961 14.355 34.4249 15.1331 35.0971 16.188C35.7693 17.243 36.0401 18.5044 35.8594 19.7421C35.679 20.9799 35.0598 22.1116 34.1142 22.9307C33.169 23.7498 31.9606 24.2018 30.7098 24.2042Z" fill="white"/>
</g>
</g>
<defs>
<clipPath id="clip0_23_60">
<rect width="43" height="43" fill="white" transform="translate(0.5 0.969421)"/>
</clipPath>
</defs>
</svg>
