<svg width="44" height="44" viewBox="0 0 44 44" fill="none" xmlns="http://www.w3.org/2000/svg">
<g clipPath="url(#clip0_23_66)">
<mask id="mask0_23_66" style="mask-type:luminance" maskUnits="userSpaceOnUse" x="0" y="0" width="44" height="44">
<path d="M43.5 0.969421H0.5V43.9694H43.5V0.969421Z" fill="white"/>
</mask>
<g mask="url(#mask0_23_66)">
<path d="M41.3961 1.5036C39.9341 0.219763 34.0921 1.62767 32.4307 1.82726C26.9233 2.43006 21.4974 3.62738 16.2478 5.39825C10.8266 7.31323 6.4033 10.0751 3.84101 15.4316C2.28071 18.7765 1.67609 22.4879 2.09402 26.1551C2.51196 29.8223 3.93617 33.3023 6.20909 36.2103C7.39045 34.9535 9.08425 33.6859 10.0174 32.2402C11.2635 30.3144 10.5839 26.4683 10.6755 24.0517C10.7025 23.3396 10.9668 13.4843 11.4469 13.4519C12.0295 13.4142 13.5345 23.0861 14.074 26.6895C14.0942 26.8042 14.1449 26.9114 14.2209 26.9997C14.297 27.088 14.3954 27.1541 14.5059 27.1912C14.6163 27.2281 14.7347 27.2347 14.8486 27.21C14.9625 27.1853 15.0676 27.1304 15.1528 27.0509C16.4366 25.7815 17.7259 24.5228 19.0205 23.2749C19.9052 22.4172 20.3475 22.0828 20.5849 20.9662C20.8222 19.8495 20.6442 18.3284 20.7197 17.147C20.7629 16.4458 21.2591 7.56676 21.8957 7.52363C22.5322 7.48046 23.8646 14.4445 24.3608 17.0499C24.3848 17.1373 24.4303 17.2173 24.4933 17.2825C24.5562 17.3476 24.6346 17.3959 24.7212 17.4228C24.8077 17.4496 24.8996 17.4543 24.9885 17.4362C25.0773 17.4182 25.1601 17.3781 25.2293 17.3196C27.851 14.7789 36.018 6.83855 36.401 7.19458C36.784 7.55057 30.0033 16.6669 27.8294 19.6014C27.7805 19.6778 27.7517 19.7653 27.7456 19.8558C27.7395 19.9463 27.7563 20.0369 27.7945 20.1191C27.8327 20.2014 27.891 20.2727 27.964 20.3265C28.037 20.3802 28.1225 20.4147 28.2124 20.4267C30.861 20.5724 37.9221 21.0309 37.9813 21.6135C38.0407 22.1961 29.2319 23.9222 28.5954 24.0463C27.5165 24.2675 26.3136 24.343 25.2347 24.6235C23.8538 24.9849 23.6164 25.3247 22.748 26.5331C21.6691 27.9715 20.5902 29.41 19.5114 30.8485C19.4388 30.9444 19.3941 31.0586 19.3823 31.1783C19.3705 31.2981 19.392 31.4187 19.4445 31.527C19.4969 31.6353 19.5783 31.727 19.6796 31.7919C19.7809 31.8568 19.8981 31.8925 20.0184 31.895C23.665 31.9543 33.4448 32.1755 33.5041 32.758C33.5311 33.2435 23.7944 34.797 23.0932 34.9159C20.8654 35.2989 17.1002 35.1477 15.3146 36.3238C13.9391 37.2298 12.6715 39.6573 11.6249 40.9413C14.702 42.757 18.2095 43.7148 21.7824 43.7148C25.3552 43.7148 28.8628 42.757 31.9398 40.9413C37.1182 37.8503 39.492 33.1518 40.7541 27.4555C41.8902 21.933 42.3968 16.2996 42.2645 10.6631C42.2645 8.61328 42.1889 6.55804 41.9839 4.519C41.903 3.83393 41.9732 2.01066 41.3961 1.5036Z" fill="white"/>
</g>
</g>
<defs>
<clipPath id="clip0_23_66">
<rect width="43" height="43" fill="white" transform="translate(0.5 0.969421)"/>
</clipPath>
</defs>
</svg>
