<svg width="52" height="43" viewBox="0 0 52 43" fill="none" xmlns="http://www.w3.org/2000/svg">
<path d="M24.0506 21.6366L12.1268 28.1712L0.629639 21.5L11.9702 15.1178L24.0506 21.6366ZM40.1811 14.8289L28.2303 21.3634L40.2891 27.9033L51.6296 21.521L40.1811 14.8289ZM24.7634 6.37701L13.4228 0L13.1798 13.0271L24.974 19.8086L24.7634 6.37701ZM39.101 29.9729L27.3069 23.1914L27.5175 36.6232L38.858 43L39.101 29.9729ZM38.9174 12.7803V0.0157622L27.2205 6.36122L27.0747 19.672L38.9174 12.7803ZM25.0604 36.6388L25.2062 23.328L13.3634 30.2198V42.9844L25.0604 36.6388Z" fill="white"/>
</svg>
