<svg width="44" height="44" viewBox="0 0 44 44" fill="none" xmlns="http://www.w3.org/2000/svg">
<g clipPath="url(#clip0_23_81)">
<mask id="mask0_23_81" style="mask-type:luminance" maskUnits="userSpaceOnUse" x="0" y="0" width="44" height="44">
<path d="M43.5 0.969421H0.5V43.9694H43.5V0.969421Z" fill="white"/>
</mask>
<g mask="url(#mask0_23_81)">
<path d="M22 43.9694C17.7477 43.9694 13.5909 42.7083 10.0552 40.346C6.5196 37.9837 3.76388 34.6257 2.1366 30.6971C0.509315 26.7685 0.0835446 22.4456 0.913125 18.275C1.74271 14.1044 3.79038 10.2735 6.79721 7.26664C9.80406 4.2598 13.635 2.21213 17.8056 1.38255C21.9761 0.552966 26.2991 0.978737 30.2277 2.60602C34.1562 4.23331 37.5143 6.98902 39.8766 10.5247C42.2389 14.0603 43.5 18.2171 43.5 22.4694C43.5 28.1716 41.2348 33.6402 37.2029 37.6723C33.1708 41.7042 27.7022 43.9694 22 43.9694ZM22 9.56942C19.4486 9.56942 16.9546 10.326 14.8331 11.7435C12.7118 13.1609 11.0583 15.1756 10.082 17.5328C9.10558 19.89 8.85013 22.4837 9.34789 24.9861C9.84561 27.4885 11.0742 29.787 12.8783 31.5911C14.6824 33.3952 16.981 34.624 19.4834 35.1215C21.9857 35.6194 24.5795 35.3637 26.9366 34.3875C29.2938 33.4111 31.3085 31.7577 32.726 29.6363C34.1435 27.5149 34.9 25.0208 34.9 22.4694C34.9 19.0481 33.5409 15.767 31.1217 13.3477C28.7025 10.9285 25.4213 9.56942 22 9.56942Z" fill="white"/>
</g>
</g>
<defs>
<clipPath id="clip0_23_81">
<rect width="43" height="43" fill="white" transform="translate(0.5 0.969421)"/>
</clipPath>
</defs>
</svg>
