<svg width="44" height="44" viewBox="0 0 44 44" fill="none" xmlns="http://www.w3.org/2000/svg">
<g clipPath="url(#clip0_23_87)">
<mask id="mask0_23_87" style="mask-type:luminance" maskUnits="userSpaceOnUse" x="0" y="0" width="44" height="44">
<path d="M43.5 0.969421H0.5V43.9694H43.5V0.969421Z" fill="white"/>
</mask>
<g mask="url(#mask0_23_87)">
<path d="M43.5 19.4893C43.5 9.5939 33.8734 1.5744 22 1.5744C10.1266 1.5744 0.5 9.5939 0.5 19.4893C0.5 24.8643 3.36488 29.7018 7.89062 33.0021C7.26639 34.1303 6.94248 35.4 6.95 36.6893C6.95 40.2529 9.27738 43.1393 12.1477 43.1393C14.3837 43.1393 16.2864 41.3817 17.0228 38.9253C17.6624 41.3602 19.6458 43.1393 22 43.1393C24.3543 43.1393 26.3377 41.3602 26.9773 38.9253C27.7137 41.3817 29.6164 43.1393 31.8524 43.1393C34.7226 43.1393 37.05 40.2529 37.05 36.6893C37.0577 35.4 36.7335 34.1303 36.1094 33.0021C40.6351 29.7018 43.5 24.8643 43.5 19.4893ZM22 30.4167C14.131 30.4167 7.4875 25.4018 7.4875 19.4893C7.4875 13.5768 14.131 8.5619 22 8.5619C29.869 8.5619 36.5125 13.5768 36.5125 19.4893C36.5125 25.4018 29.869 30.4167 22 30.4167Z" fill="white"/>
</g>
</g>
<defs>
<clipPath id="clip0_23_87">
<rect width="43" height="43" fill="white" transform="translate(0.5 0.969421)"/>
</clipPath>
</defs>
</svg>
