<svg width="44" height="44" viewBox="0 0 44 44" fill="none" xmlns="http://www.w3.org/2000/svg">
<g clipPath="url(#clip0_23_93)">
<mask id="mask0_23_93" style="mask-type:luminance" maskUnits="userSpaceOnUse" x="0" y="0" width="44" height="44">
<path d="M43.5 0.969421H0.5V43.9694H43.5V0.969421Z" fill="white"/>
</mask>
<g mask="url(#mask0_23_93)">
<path d="M34.251 41.3555C23.8088 46.9425 9.57032 44.3662 3.38824 33.7393C-2.26429 24.0348 0.811878 10.3973 10.2724 4.25094C19.733 -1.89544 33.537 0.877271 40.0822 9.89158C47.7161 20.3993 41.9981 36.1552 28.5331 37.4106C22.8686 37.934 16.633 35.31 13.896 30.0919C11.4565 25.3914 12.6286 18.5608 17.0852 15.4548C21.5418 12.3489 28.7532 12.9201 31.0143 18.4358C31.9722 20.7801 31.6092 23.9753 29.7886 25.8317C28.2534 27.3609 24.6834 27.9559 23.0233 26.1709C22.4283 25.5164 21.7798 24.2966 22.9341 23.8325C23.3863 23.654 24.5406 24.4275 25.0821 24.4275C27.5751 24.3918 28.3665 21.2442 27.0872 19.3938C25.5343 17.1566 22.1011 17.3232 20.1495 18.8404C17.7695 20.6968 17.472 23.773 18.5013 26.4565C20.5006 31.6389 27.0039 32.8111 31.4367 29.848C35.7446 26.9622 36.399 20.0304 34.2154 15.6452C31.2403 9.62978 23.0174 7.86262 17.0852 10.0106C11.153 12.1585 7.70795 17.9122 7.56518 24.0408C7.51663 26.7803 8.12303 29.4919 9.33389 31.9498C10.5447 34.4078 12.325 36.5412 14.5267 38.1721C20.322 42.4086 27.5037 41.3555 34.251 41.3555Z" fill="white"/>
</g>
</g>
<defs>
<clipPath id="clip0_23_93">
<rect width="43" height="43" fill="white" transform="translate(0.5 0.969421)"/>
</clipPath>
</defs>
</svg>
