<svg width="44" height="44" viewBox="0 0 44 44" fill="none" xmlns="http://www.w3.org/2000/svg">
<g clipPath="url(#clip0_23_105)">
<mask id="mask0_23_105" style="mask-type:luminance" maskUnits="userSpaceOnUse" x="0" y="0" width="44" height="44">
<path d="M43.5 0.969421H0.5V43.9694H43.5V0.969421Z" fill="white"/>
</mask>
<g mask="url(#mask0_23_105)">
<path d="M31.7943 22.3585C31.7943 24.3289 31.21 26.255 30.1154 27.8933C29.0207 29.5316 27.4648 30.8085 25.6444 31.5625C23.8241 32.3165 21.821 32.5138 19.8885 32.1294C17.956 31.745 16.1809 30.7962 14.7876 29.4029C13.3944 28.0097 12.4456 26.2346 12.0612 24.3021C11.6768 22.3696 11.8741 20.3665 12.6281 18.5461C13.3821 16.7258 14.659 15.1699 16.2973 14.0752C17.9356 12.9805 19.8617 12.3963 21.832 12.3963C24.4742 12.3963 27.0082 13.4459 28.8764 15.3141C30.7447 17.1824 31.7943 19.7164 31.7943 22.3585ZM32.666 3.59457H10.998L0.164062 22.3585L10.998 41.1223H32.666L43.5 22.3585L32.666 3.59457Z" fill="white"/>
</g>
</g>
<defs>
<clipPath id="clip0_23_105">
<rect width="43" height="43" fill="white" transform="translate(0.5 0.969421)"/>
</clipPath>
</defs>
</svg>
