<svg width="44" height="44" viewBox="0 0 44 44" fill="none" xmlns="http://www.w3.org/2000/svg">
<path d="M43.5 28.4569C43.5 32.5711 41.2352 36.517 37.203 39.426C33.1709 42.3353 27.7023 43.9694 22.0001 43.9694C16.2979 43.9694 10.8293 42.3353 6.79722 39.426C2.7652 36.517 0.5 32.5711 0.5 28.4569C0.5 19.8895 17.851 0.969421 22.0001 0.969421C26.1492 0.969421 43.5 19.8895 43.5 28.4569ZM24.6405 33.6278C21.6393 33.6278 18.7611 32.7676 16.639 31.2364C14.5168 29.7052 13.3246 27.6285 13.3246 25.4632C13.3234 24.4044 13.6105 23.3558 14.1696 22.377C12.3194 23.2601 10.8185 24.4744 9.81326 25.9013C8.80808 27.3281 8.333 28.9187 8.43452 30.5176C8.53605 32.1165 9.21066 33.669 10.3924 35.0236C11.5742 36.3782 13.2228 37.4884 15.1771 38.2458C17.1313 39.0032 19.3245 39.382 21.5422 39.345C23.76 39.3077 25.9266 38.8564 27.8302 38.0345C29.7339 37.2129 31.3095 36.0489 32.4032 34.6564C33.497 33.2638 34.0714 31.6904 34.0704 30.0898C34.0704 30.0517 34.0704 30.019 34.0704 29.9809C33.0374 31.1028 31.6358 32.0229 29.9905 32.6592C28.3452 33.2955 26.5072 33.6283 24.6405 33.6278Z" fill="white"/>
</svg>
